<?xml version="1.0" encoding="UTF-8" standalone="no"?>
<svg
   aria-hidden="true"
   role="img"
   class="iconify iconify--simple-icons"
   width="32"
   height="32"
   preserveAspectRatio="xMidYMid meet"
   viewBox="0 0 24 24"
   version="1.1"
   id="svg4"
   sodipodi:docname="codepen.svg"
   inkscape:version="1.1.2 (0a00cf5339, 2022-02-04, custom)"
   xmlns:inkscape="http://www.inkscape.org/namespaces/inkscape"
   xmlns:sodipodi="http://sodipodi.sourceforge.net/DTD/sodipodi-0.dtd"
   xmlns="http://www.w3.org/2000/svg"
   xmlns:svg="http://www.w3.org/2000/svg">
  <defs
     id="defs8" />
  <sodipodi:namedview
     id="namedview6"
     pagecolor="#ffffff"
     bordercolor="#666666"
     borderopacity="1.0"
     inkscape:pageshadow="2"
     inkscape:pageopacity="0.0"
     inkscape:pagecheckerboard="0"
     showgrid="false"
     inkscape:zoom="22.46875"
     inkscape:cx="16"
     inkscape:cy="15.977747"
     inkscape:window-width="1920"
     inkscape:window-height="1017"
     inkscape:window-x="1912"
     inkscape:window-y="-8"
     inkscape:window-maximized="1"
     inkscape:current-layer="svg4" />
  <circle
     style="fill:#ffffff;stroke-width:11.3386;stroke-linejoin:bevel;paint-order:fill markers stroke;stop-color:#000000;fill-opacity:1"
     id="path847"
     cx="12"
     cy="11.89986"
     r="11.098748" />
  <path
     fill="currentColor"
     d="M18.144 13.067v-2.134L16.55 12zm1.276 1.194a.628.628 0 0 1-.006.083l-.005.028l-.011.053l-.01.031a.443.443 0 0 1-.017.047l-.014.03a.78.78 0 0 1-.021.043l-.019.03a.57.57 0 0 1-.08.1l-.026.025a.602.602 0 0 1-.036.03l-.029.022l-.01.008l-6.782 4.522a.637.637 0 0 1-.708 0L4.864 14.79l-.01-.008a.599.599 0 0 1-.065-.052l-.026-.025l-.032-.034l-.021-.028a.588.588 0 0 1-.067-.11l-.014-.031a.644.644 0 0 1-.017-.047l-.01-.03c-.004-.018-.008-.036-.01-.054l-.006-.028a.628.628 0 0 1-.006-.083V9.739a.58.58 0 0 1 .006-.083l.005-.027l.011-.054l.01-.03a.574.574 0 0 1 .12-.217l.031-.034l.026-.025a.62.62 0 0 1 .065-.052l.01-.008l6.782-4.521a.638.638 0 0 1 .708 0l6.782 4.521l.01.008l.03.022l.035.03c.01.008.017.016.026.025a.545.545 0 0 1 .08.1l.019.03a.633.633 0 0 1 .021.043l.014.03c.007.016.012.032.017.047l.01.031c.004.018.008.036.01.054l.006.027a.619.619 0 0 1 .006.083zM12 0C5.373 0 0 5.372 0 12c0 6.627 5.373 12 12 12c6.628 0 12-5.372 12-12c0-6.627-5.372-12-12-12m0 10.492L9.745 12L12 13.51L14.255 12zm.638 4.124v2.975l4.996-3.33l-2.232-1.493zm-6.272-.356l4.996 3.33v-2.974l-2.764-1.849zm11.268-4.52l-4.996-3.33v2.974l2.764 1.85zm-6.272-.356V6.41L6.366 9.74l2.232 1.493zm-5.506 1.549v2.134L7.45 12Z"
     id="path2" />
</svg>
